<mxfile host="app.diagrams.net" modified="2022-08-23T20:13:33.386Z" agent="5.0 (Windows NT 10.0; Win64; x64) AppleWebKit/537.36 (KHTML, like Gecko) Chrome/90.0.4430.214 Safari/537.36" etag="Yvnqq7ltjXJaIsnf34C_" version="20.2.4" type="github">
  <diagram id="lh1zM67g_Hy6dqLlL-dk" name="Page-1">
    <mxGraphModel dx="1822" dy="1239" grid="1" gridSize="10" guides="1" tooltips="1" connect="1" arrows="1" fold="1" page="0" pageScale="1" pageWidth="1100" pageHeight="850" background="#182E3E" math="0" shadow="0">
      <root>
        <mxCell id="0" />
        <mxCell id="1" parent="0" />
        <mxCell id="sRocoR6KCOKyxxY12Ehh-2" style="edgeStyle=orthogonalEdgeStyle;rounded=0;orthogonalLoop=1;jettySize=auto;html=1;entryX=0.5;entryY=0;entryDx=0;entryDy=0;fontColor=#FFFFFF;strokeColor=#FFFFFF;endArrow=classic;endFill=1;startArrow=classic;startFill=1;labelBackgroundColor=#182E3E;" parent="1" source="9BnDRoiO5koBL8PmgJbh-1" target="sRocoR6KCOKyxxY12Ehh-1" edge="1">
          <mxGeometry relative="1" as="geometry" />
        </mxCell>
        <mxCell id="9BnDRoiO5koBL8PmgJbh-1" value="Home" style="rounded=0;whiteSpace=wrap;html=1;fillColor=#EEEEEE;strokeColor=#FFFFFF;fontColor=#1A1A1A;" parent="1" vertex="1">
          <mxGeometry x="50" y="260" width="120" height="60" as="geometry" />
        </mxCell>
        <mxCell id="5MRn0iw3YMrf1xmMsXha-25" style="edgeStyle=orthogonalEdgeStyle;rounded=0;orthogonalLoop=1;jettySize=auto;html=1;fontColor=#FFFFFF;endArrow=none;endFill=0;strokeColor=#FFFFFF;labelBackgroundColor=#182E3E;" parent="1" source="9BnDRoiO5koBL8PmgJbh-2" edge="1">
          <mxGeometry relative="1" as="geometry">
            <mxPoint x="900" y="160" as="targetPoint" />
          </mxGeometry>
        </mxCell>
        <mxCell id="5MRn0iw3YMrf1xmMsXha-66" value="GET" style="edgeStyle=orthogonalEdgeStyle;rounded=0;orthogonalLoop=1;jettySize=auto;html=1;entryX=0;entryY=0.5;entryDx=0;entryDy=0;fontColor=#FFFFFF;startArrow=none;startFill=0;endArrow=classic;endFill=1;strokeColor=#FFFFFF;labelBackgroundColor=#182E3E;" parent="1" source="9BnDRoiO5koBL8PmgJbh-2" target="9BnDRoiO5koBL8PmgJbh-9" edge="1">
          <mxGeometry relative="1" as="geometry" />
        </mxCell>
        <mxCell id="5MRn0iw3YMrf1xmMsXha-68" style="edgeStyle=orthogonalEdgeStyle;rounded=0;orthogonalLoop=1;jettySize=auto;html=1;entryX=0.5;entryY=0;entryDx=0;entryDy=0;fontColor=#FFFFFF;startArrow=none;startFill=0;endArrow=classic;endFill=1;strokeColor=#FFFFFF;labelBackgroundColor=#182E3E;" parent="1" source="9BnDRoiO5koBL8PmgJbh-2" target="5MRn0iw3YMrf1xmMsXha-37" edge="1">
          <mxGeometry relative="1" as="geometry" />
        </mxCell>
        <mxCell id="9BnDRoiO5koBL8PmgJbh-2" value="Photo Display" style="rounded=0;whiteSpace=wrap;html=1;fillColor=#EEEEEE;strokeColor=#FFFFFF;fontColor=#1A1A1A;" parent="1" vertex="1">
          <mxGeometry x="840" y="260" width="120" height="60" as="geometry" />
        </mxCell>
        <mxCell id="9BnDRoiO5koBL8PmgJbh-15" value="GET" style="edgeStyle=orthogonalEdgeStyle;rounded=0;orthogonalLoop=1;jettySize=auto;html=1;entryX=0;entryY=0.5;entryDx=0;entryDy=0;labelBackgroundColor=#182E3E;strokeColor=#FFFFFF;fontColor=#FFFFFF;" parent="1" source="9BnDRoiO5koBL8PmgJbh-3" target="9BnDRoiO5koBL8PmgJbh-8" edge="1">
          <mxGeometry relative="1" as="geometry" />
        </mxCell>
        <mxCell id="WNoz3eUofTTveRkiIzlt-5" style="edgeStyle=orthogonalEdgeStyle;rounded=0;orthogonalLoop=1;jettySize=auto;html=1;startArrow=classic;startFill=1;labelBackgroundColor=#182E3E;strokeColor=#FFFFFF;fontColor=#FFFFFF;" edge="1" parent="1" source="9BnDRoiO5koBL8PmgJbh-3">
          <mxGeometry relative="1" as="geometry">
            <mxPoint x="80" y="200" as="targetPoint" />
            <Array as="points">
              <mxPoint x="220" y="200" />
              <mxPoint x="80" y="200" />
            </Array>
          </mxGeometry>
        </mxCell>
        <mxCell id="9BnDRoiO5koBL8PmgJbh-3" value="Login" style="rounded=0;whiteSpace=wrap;html=1;fillColor=#EEEEEE;strokeColor=#FFFFFF;fontColor=#1A1A1A;" parent="1" vertex="1">
          <mxGeometry x="210" y="260" width="120" height="60" as="geometry" />
        </mxCell>
        <mxCell id="5MRn0iw3YMrf1xmMsXha-23" style="edgeStyle=orthogonalEdgeStyle;rounded=0;orthogonalLoop=1;jettySize=auto;html=1;fontColor=#FFFFFF;strokeColor=#FFFFFF;endArrow=none;endFill=0;labelBackgroundColor=#182E3E;" parent="1" source="9BnDRoiO5koBL8PmgJbh-4" edge="1">
          <mxGeometry relative="1" as="geometry">
            <mxPoint x="900" y="160" as="targetPoint" />
          </mxGeometry>
        </mxCell>
        <mxCell id="5MRn0iw3YMrf1xmMsXha-36" value="PUT" style="edgeStyle=orthogonalEdgeStyle;rounded=0;orthogonalLoop=1;jettySize=auto;html=1;entryX=1;entryY=0.5;entryDx=0;entryDy=0;fontColor=#FFFFFF;startArrow=none;startFill=0;endArrow=classic;endFill=1;strokeColor=#FFFFFF;labelBackgroundColor=#182E3E;" parent="1" source="9BnDRoiO5koBL8PmgJbh-4" target="5MRn0iw3YMrf1xmMsXha-35" edge="1">
          <mxGeometry relative="1" as="geometry" />
        </mxCell>
        <mxCell id="5MRn0iw3YMrf1xmMsXha-53" value="DELETE" style="edgeStyle=orthogonalEdgeStyle;rounded=0;orthogonalLoop=1;jettySize=auto;html=1;entryX=1;entryY=0.5;entryDx=0;entryDy=0;fontColor=#FFFFFF;startArrow=none;startFill=0;endArrow=classic;endFill=1;strokeColor=#FFFFFF;labelBackgroundColor=#182E3E;" parent="1" source="9BnDRoiO5koBL8PmgJbh-4" target="5MRn0iw3YMrf1xmMsXha-52" edge="1">
          <mxGeometry relative="1" as="geometry">
            <Array as="points">
              <mxPoint x="610" y="100" />
            </Array>
          </mxGeometry>
        </mxCell>
        <mxCell id="9BnDRoiO5koBL8PmgJbh-4" value="User Setings" style="rounded=0;whiteSpace=wrap;html=1;fillColor=#EEEEEE;strokeColor=#FFFFFF;fontColor=#1A1A1A;" parent="1" vertex="1">
          <mxGeometry x="550" y="130" width="120" height="60" as="geometry" />
        </mxCell>
        <mxCell id="5MRn0iw3YMrf1xmMsXha-62" value="LINK" style="edgeStyle=orthogonalEdgeStyle;rounded=0;orthogonalLoop=1;jettySize=auto;html=1;fontColor=#FFFFFF;startArrow=none;startFill=0;endArrow=classic;endFill=1;strokeColor=#FFFFFF;labelBackgroundColor=#182E3E;" parent="1" source="9BnDRoiO5koBL8PmgJbh-5" target="5MRn0iw3YMrf1xmMsXha-57" edge="1">
          <mxGeometry relative="1" as="geometry" />
        </mxCell>
        <mxCell id="5MRn0iw3YMrf1xmMsXha-69" style="edgeStyle=orthogonalEdgeStyle;rounded=0;orthogonalLoop=1;jettySize=auto;html=1;entryX=0.5;entryY=0;entryDx=0;entryDy=0;fontColor=#FFFFFF;startArrow=none;startFill=0;endArrow=classic;endFill=1;strokeColor=#FFFFFF;labelBackgroundColor=#182E3E;exitX=0.75;exitY=1;exitDx=0;exitDy=0;" parent="1" source="9BnDRoiO5koBL8PmgJbh-5" target="5MRn0iw3YMrf1xmMsXha-48" edge="1">
          <mxGeometry relative="1" as="geometry" />
        </mxCell>
        <mxCell id="9BnDRoiO5koBL8PmgJbh-5" value="Dashboard" style="rounded=0;whiteSpace=wrap;html=1;fillColor=#EEEEEE;strokeColor=#FFFFFF;fontColor=#1A1A1A;" parent="1" vertex="1">
          <mxGeometry x="550" y="260" width="120" height="60" as="geometry" />
        </mxCell>
        <mxCell id="9BnDRoiO5koBL8PmgJbh-27" style="edgeStyle=orthogonalEdgeStyle;rounded=0;orthogonalLoop=1;jettySize=auto;html=1;entryX=0.5;entryY=0;entryDx=0;entryDy=0;labelBackgroundColor=#182E3E;strokeColor=#FFFFFF;fontColor=#FFFFFF;" parent="1" source="9BnDRoiO5koBL8PmgJbh-7" target="9BnDRoiO5koBL8PmgJbh-1" edge="1">
          <mxGeometry relative="1" as="geometry">
            <Array as="points">
              <mxPoint x="890" y="40" />
              <mxPoint x="110" y="40" />
            </Array>
          </mxGeometry>
        </mxCell>
        <mxCell id="9BnDRoiO5koBL8PmgJbh-7" value="Logout" style="rhombus;whiteSpace=wrap;html=1;fillColor=#EEEEEE;strokeColor=#FFFFFF;fontColor=#1A1A1A;" parent="1" vertex="1">
          <mxGeometry x="860" width="80" height="80" as="geometry" />
        </mxCell>
        <mxCell id="5MRn0iw3YMrf1xmMsXha-9" value="Success" style="edgeStyle=orthogonalEdgeStyle;rounded=0;orthogonalLoop=1;jettySize=auto;html=1;entryX=0;entryY=0.5;entryDx=0;entryDy=0;fontColor=#FFFFFF;strokeColor=#FFFFFF;labelBackgroundColor=#182E3E;" parent="1" source="9BnDRoiO5koBL8PmgJbh-8" target="9BnDRoiO5koBL8PmgJbh-5" edge="1">
          <mxGeometry relative="1" as="geometry" />
        </mxCell>
        <mxCell id="5MRn0iw3YMrf1xmMsXha-11" value="Fail" style="edgeStyle=orthogonalEdgeStyle;rounded=0;orthogonalLoop=1;jettySize=auto;html=1;entryX=0.5;entryY=0;entryDx=0;entryDy=0;fontColor=#FFFFFF;strokeColor=#FFFFFF;labelBackgroundColor=#182E3E;" parent="1" source="9BnDRoiO5koBL8PmgJbh-8" target="9BnDRoiO5koBL8PmgJbh-3" edge="1">
          <mxGeometry relative="1" as="geometry">
            <Array as="points">
              <mxPoint x="370" y="240" />
              <mxPoint x="70" y="240" />
            </Array>
          </mxGeometry>
        </mxCell>
        <mxCell id="9BnDRoiO5koBL8PmgJbh-8" value="Login" style="rhombus;whiteSpace=wrap;html=1;fillColor=#EEEEEE;strokeColor=#FFFFFF;fontColor=#1A1A1A;" parent="1" vertex="1">
          <mxGeometry x="390" y="250" width="80" height="80" as="geometry" />
        </mxCell>
        <mxCell id="5MRn0iw3YMrf1xmMsXha-67" value="Show" style="edgeStyle=orthogonalEdgeStyle;rounded=0;orthogonalLoop=1;jettySize=auto;html=1;entryX=1;entryY=1;entryDx=0;entryDy=0;fontColor=#FFFFFF;startArrow=none;startFill=0;endArrow=classic;endFill=1;strokeColor=#FFFFFF;labelBackgroundColor=#182E3E;" parent="1" source="9BnDRoiO5koBL8PmgJbh-9" target="9BnDRoiO5koBL8PmgJbh-2" edge="1">
          <mxGeometry relative="1" as="geometry">
            <Array as="points">
              <mxPoint x="980" y="320" />
              <mxPoint x="980" y="320" />
            </Array>
          </mxGeometry>
        </mxCell>
        <mxCell id="9BnDRoiO5koBL8PmgJbh-9" value="Photos" style="rhombus;whiteSpace=wrap;html=1;fillColor=#EEEEEE;strokeColor=#FFFFFF;fontColor=#1A1A1A;" parent="1" vertex="1">
          <mxGeometry x="1020" y="250" width="80" height="80" as="geometry" />
        </mxCell>
        <mxCell id="9BnDRoiO5koBL8PmgJbh-22" value="" style="endArrow=classic;startArrow=classic;html=1;rounded=0;entryX=0.5;entryY=1;entryDx=0;entryDy=0;exitX=0.5;exitY=0;exitDx=0;exitDy=0;labelBackgroundColor=#182E3E;strokeColor=#FFFFFF;fontColor=#FFFFFF;" parent="1" source="9BnDRoiO5koBL8PmgJbh-5" target="9BnDRoiO5koBL8PmgJbh-4" edge="1">
          <mxGeometry width="50" height="50" relative="1" as="geometry">
            <mxPoint x="450" y="230" as="sourcePoint" />
            <mxPoint x="500" y="180" as="targetPoint" />
          </mxGeometry>
        </mxCell>
        <mxCell id="9BnDRoiO5koBL8PmgJbh-28" value="" style="endArrow=classic;startArrow=classic;html=1;rounded=0;entryX=0;entryY=0.5;entryDx=0;entryDy=0;exitX=1;exitY=0.5;exitDx=0;exitDy=0;labelBackgroundColor=#182E3E;strokeColor=#FFFFFF;fontColor=#FFFFFF;" parent="1" source="9BnDRoiO5koBL8PmgJbh-1" target="9BnDRoiO5koBL8PmgJbh-3" edge="1">
          <mxGeometry width="50" height="50" relative="1" as="geometry">
            <mxPoint x="220" y="400" as="sourcePoint" />
            <mxPoint x="270" y="350" as="targetPoint" />
          </mxGeometry>
        </mxCell>
        <mxCell id="5MRn0iw3YMrf1xmMsXha-13" style="edgeStyle=orthogonalEdgeStyle;rounded=0;orthogonalLoop=1;jettySize=auto;html=1;entryX=0;entryY=0.5;entryDx=0;entryDy=0;fontColor=#FFFFFF;strokeColor=#FFFFFF;labelBackgroundColor=#182E3E;" parent="1" source="9BnDRoiO5koBL8PmgJbh-29" target="9BnDRoiO5koBL8PmgJbh-1" edge="1">
          <mxGeometry relative="1" as="geometry" />
        </mxCell>
        <mxCell id="9BnDRoiO5koBL8PmgJbh-29" value="Fresh User" style="ellipse;whiteSpace=wrap;html=1;aspect=fixed;fillColor=#EEEEEE;strokeColor=#FFFFFF;fontColor=#1A1A1A;" parent="1" vertex="1">
          <mxGeometry x="-70" y="250" width="80" height="80" as="geometry" />
        </mxCell>
        <mxCell id="5MRn0iw3YMrf1xmMsXha-16" style="edgeStyle=orthogonalEdgeStyle;rounded=0;orthogonalLoop=1;jettySize=auto;html=1;fontColor=#FFFFFF;strokeColor=#FFFFFF;labelBackgroundColor=#182E3E;" parent="1" source="5MRn0iw3YMrf1xmMsXha-14" target="9BnDRoiO5koBL8PmgJbh-3" edge="1">
          <mxGeometry relative="1" as="geometry" />
        </mxCell>
        <mxCell id="5MRn0iw3YMrf1xmMsXha-14" value="Known User" style="ellipse;whiteSpace=wrap;html=1;aspect=fixed;fontColor=#1A1A1A;strokeColor=#FFFFFF;fillColor=#EEEEEE;" parent="1" vertex="1">
          <mxGeometry x="230" y="130" width="80" height="80" as="geometry" />
        </mxCell>
        <mxCell id="5MRn0iw3YMrf1xmMsXha-19" value="POST" style="endArrow=classic;html=1;rounded=0;fontColor=#FFFFFF;strokeColor=#FFFFFF;entryX=0.5;entryY=1;entryDx=0;entryDy=0;startArrow=oval;startFill=1;labelBackgroundColor=#182E3E;" parent="1" target="9BnDRoiO5koBL8PmgJbh-7" edge="1">
          <mxGeometry width="50" height="50" relative="1" as="geometry">
            <mxPoint x="900" y="160" as="sourcePoint" />
            <mxPoint x="915" y="140" as="targetPoint" />
          </mxGeometry>
        </mxCell>
        <mxCell id="5MRn0iw3YMrf1xmMsXha-27" value="" style="endArrow=none;html=1;rounded=0;fontColor=#FFFFFF;strokeColor=#FFFFFF;exitX=1;exitY=0;exitDx=0;exitDy=0;endFill=0;labelBackgroundColor=#182E3E;" parent="1" source="9BnDRoiO5koBL8PmgJbh-5" edge="1">
          <mxGeometry width="50" height="50" relative="1" as="geometry">
            <mxPoint x="680" y="260" as="sourcePoint" />
            <mxPoint x="900" y="160" as="targetPoint" />
          </mxGeometry>
        </mxCell>
        <mxCell id="5MRn0iw3YMrf1xmMsXha-32" value="Legend" style="swimlane;fontColor=#1A1A1A;strokeColor=#FFFFFF;fillColor=#EEEEEE;" parent="1" vertex="1" collapsed="1">
          <mxGeometry x="10" y="40" width="80" height="30" as="geometry">
            <mxRectangle x="-190" y="-100" width="250" height="280" as="alternateBounds" />
          </mxGeometry>
        </mxCell>
        <mxCell id="5MRn0iw3YMrf1xmMsXha-28" value="Start Point" style="ellipse;whiteSpace=wrap;html=1;aspect=fixed;fontColor=#1A1A1A;strokeColor=#FFFFFF;fillColor=#EEEEEE;" parent="5MRn0iw3YMrf1xmMsXha-32" vertex="1">
          <mxGeometry x="30" y="30" width="80" height="80" as="geometry" />
        </mxCell>
        <mxCell id="5MRn0iw3YMrf1xmMsXha-30" value="Function" style="rhombus;whiteSpace=wrap;html=1;fontColor=#1A1A1A;strokeColor=#FFFFFF;fillColor=#EEEEEE;" parent="5MRn0iw3YMrf1xmMsXha-32" vertex="1">
          <mxGeometry x="30" y="190" width="80" height="80" as="geometry" />
        </mxCell>
        <mxCell id="5MRn0iw3YMrf1xmMsXha-29" value="Page" style="rounded=0;whiteSpace=wrap;html=1;fontColor=#1A1A1A;strokeColor=#FFFFFF;fillColor=#EEEEEE;" parent="5MRn0iw3YMrf1xmMsXha-32" vertex="1">
          <mxGeometry x="10" y="120" width="120" height="60" as="geometry" />
        </mxCell>
        <mxCell id="5MRn0iw3YMrf1xmMsXha-70" value="Solid Storage" style="shape=cylinder3;whiteSpace=wrap;html=1;boundedLbl=1;backgroundOutline=1;size=15;fontColor=#1A1A1A;strokeColor=#FFFFFF;fillColor=#EEEEEE;" parent="5MRn0iw3YMrf1xmMsXha-32" vertex="1">
          <mxGeometry x="150" y="30" width="60" height="80" as="geometry" />
        </mxCell>
        <mxCell id="5MRn0iw3YMrf1xmMsXha-71" value="Cloud Database" style="ellipse;shape=cloud;whiteSpace=wrap;html=1;fontColor=#1A1A1A;strokeColor=#FFFFFF;fillColor=#EEEEEE;" parent="5MRn0iw3YMrf1xmMsXha-32" vertex="1">
          <mxGeometry x="120" y="190" width="120" height="80" as="geometry" />
        </mxCell>
        <mxCell id="5MRn0iw3YMrf1xmMsXha-35" value="Update Settings" style="rhombus;whiteSpace=wrap;html=1;fontColor=#1A1A1A;strokeColor=#FFFFFF;fillColor=#EEEEEE;" parent="1" vertex="1">
          <mxGeometry x="410" y="120" width="80" height="80" as="geometry" />
        </mxCell>
        <mxCell id="5MRn0iw3YMrf1xmMsXha-75" value="Download" style="edgeStyle=orthogonalEdgeStyle;rounded=0;orthogonalLoop=1;jettySize=auto;html=1;entryX=0;entryY=0.5;entryDx=0;entryDy=0;entryPerimeter=0;fontColor=#FFFFFF;startArrow=none;startFill=0;endArrow=classic;endFill=1;strokeColor=#FFFFFF;labelBackgroundColor=#182E3E;" parent="1" source="5MRn0iw3YMrf1xmMsXha-37" target="5MRn0iw3YMrf1xmMsXha-74" edge="1">
          <mxGeometry relative="1" as="geometry" />
        </mxCell>
        <mxCell id="5MRn0iw3YMrf1xmMsXha-82" value="Download" style="edgeStyle=orthogonalEdgeStyle;rounded=0;orthogonalLoop=1;jettySize=auto;html=1;entryX=0.4;entryY=0.1;entryDx=0;entryDy=0;entryPerimeter=0;fontColor=#FFFFFF;startArrow=none;startFill=0;endArrow=classic;endFill=1;strokeColor=#FFFFFF;labelBackgroundColor=#182E3E;" parent="1" source="5MRn0iw3YMrf1xmMsXha-37" target="5MRn0iw3YMrf1xmMsXha-76" edge="1">
          <mxGeometry relative="1" as="geometry" />
        </mxCell>
        <mxCell id="5MRn0iw3YMrf1xmMsXha-37" value="Store Photos" style="rhombus;whiteSpace=wrap;html=1;fontColor=#1A1A1A;strokeColor=#FFFFFF;fillColor=#EEEEEE;" parent="1" vertex="1">
          <mxGeometry x="860" y="350" width="80" height="80" as="geometry" />
        </mxCell>
        <mxCell id="5MRn0iw3YMrf1xmMsXha-85" value="GET" style="edgeStyle=orthogonalEdgeStyle;rounded=0;orthogonalLoop=1;jettySize=auto;html=1;fontColor=#FFFFFF;startArrow=none;startFill=0;endArrow=classic;endFill=1;strokeColor=#FFFFFF;labelBackgroundColor=#182E3E;" parent="1" source="5MRn0iw3YMrf1xmMsXha-48" target="5MRn0iw3YMrf1xmMsXha-76" edge="1">
          <mxGeometry relative="1" as="geometry">
            <Array as="points">
              <mxPoint x="810" y="460" />
              <mxPoint x="810" y="530" />
            </Array>
          </mxGeometry>
        </mxCell>
        <mxCell id="5MRn0iw3YMrf1xmMsXha-86" value="PUT" style="edgeStyle=orthogonalEdgeStyle;rounded=0;orthogonalLoop=1;jettySize=auto;html=1;fontColor=#FFFFFF;startArrow=none;startFill=0;endArrow=classic;endFill=1;strokeColor=#FFFFFF;labelBackgroundColor=#182E3E;" parent="1" source="5MRn0iw3YMrf1xmMsXha-48" target="5MRn0iw3YMrf1xmMsXha-84" edge="1">
          <mxGeometry relative="1" as="geometry" />
        </mxCell>
        <mxCell id="5MRn0iw3YMrf1xmMsXha-88" value="GET" style="edgeStyle=orthogonalEdgeStyle;rounded=0;orthogonalLoop=1;jettySize=auto;html=1;entryX=0.5;entryY=1;entryDx=0;entryDy=0;entryPerimeter=0;fontColor=#FFFFFF;startArrow=none;startFill=0;endArrow=classic;endFill=1;strokeColor=#FFFFFF;labelBackgroundColor=#182E3E;exitX=0.5;exitY=1;exitDx=0;exitDy=0;" parent="1" source="5MRn0iw3YMrf1xmMsXha-48" target="5MRn0iw3YMrf1xmMsXha-74" edge="1">
          <mxGeometry relative="1" as="geometry">
            <Array as="points">
              <mxPoint x="640" y="610" />
              <mxPoint x="1070" y="610" />
            </Array>
          </mxGeometry>
        </mxCell>
        <mxCell id="5MRn0iw3YMrf1xmMsXha-48" value="Transfer Photos" style="rhombus;whiteSpace=wrap;html=1;fontColor=#1A1A1A;strokeColor=#FFFFFF;fillColor=#EEEEEE;" parent="1" vertex="1">
          <mxGeometry x="600" y="420" width="80" height="80" as="geometry" />
        </mxCell>
        <mxCell id="5MRn0iw3YMrf1xmMsXha-55" style="edgeStyle=orthogonalEdgeStyle;rounded=0;orthogonalLoop=1;jettySize=auto;html=1;entryX=0.5;entryY=0;entryDx=0;entryDy=0;fontColor=#FFFFFF;startArrow=none;startFill=0;endArrow=classic;endFill=1;strokeColor=#FFFFFF;labelBackgroundColor=#182E3E;" parent="1" source="5MRn0iw3YMrf1xmMsXha-52" target="9BnDRoiO5koBL8PmgJbh-1" edge="1">
          <mxGeometry relative="1" as="geometry" />
        </mxCell>
        <mxCell id="5MRn0iw3YMrf1xmMsXha-73" value="REQUEST" style="edgeStyle=orthogonalEdgeStyle;rounded=0;orthogonalLoop=1;jettySize=auto;html=1;fontColor=#FFFFFF;startArrow=none;startFill=0;endArrow=classic;endFill=1;strokeColor=#FFFFFF;labelBackgroundColor=#182E3E;" parent="1" source="5MRn0iw3YMrf1xmMsXha-52" target="5MRn0iw3YMrf1xmMsXha-72" edge="1">
          <mxGeometry relative="1" as="geometry" />
        </mxCell>
        <mxCell id="5MRn0iw3YMrf1xmMsXha-52" value="Erase User" style="rhombus;whiteSpace=wrap;html=1;fontColor=#1A1A1A;strokeColor=#FFFFFF;fillColor=#EEEEEE;" parent="1" vertex="1">
          <mxGeometry x="340" y="60" width="80" height="80" as="geometry" />
        </mxCell>
        <mxCell id="5MRn0iw3YMrf1xmMsXha-63" style="edgeStyle=orthogonalEdgeStyle;rounded=0;orthogonalLoop=1;jettySize=auto;html=1;fontColor=#FFFFFF;startArrow=none;startFill=0;endArrow=classic;endFill=1;strokeColor=#FFFFFF;labelBackgroundColor=#182E3E;" parent="1" source="5MRn0iw3YMrf1xmMsXha-57" target="9BnDRoiO5koBL8PmgJbh-2" edge="1">
          <mxGeometry relative="1" as="geometry" />
        </mxCell>
        <mxCell id="5MRn0iw3YMrf1xmMsXha-57" value="Connect with Social Media" style="rhombus;whiteSpace=wrap;html=1;fontColor=#1A1A1A;strokeColor=#FFFFFF;fillColor=#EEEEEE;" parent="1" vertex="1">
          <mxGeometry x="740" y="250" width="80" height="80" as="geometry" />
        </mxCell>
        <mxCell id="5MRn0iw3YMrf1xmMsXha-72" value="Data Movers" style="ellipse;shape=cloud;whiteSpace=wrap;html=1;fontColor=#1A1A1A;strokeColor=#FFFFFF;fillColor=#EEEEEE;" parent="1" vertex="1">
          <mxGeometry x="320" y="-100" width="120" height="80" as="geometry" />
        </mxCell>
        <mxCell id="5MRn0iw3YMrf1xmMsXha-74" value="User" style="shape=cylinder3;whiteSpace=wrap;html=1;boundedLbl=1;backgroundOutline=1;size=15;fontColor=#1A1A1A;strokeColor=#FFFFFF;fillColor=#EEEEEE;" parent="1" vertex="1">
          <mxGeometry x="1040" y="350" width="60" height="80" as="geometry" />
        </mxCell>
        <mxCell id="5MRn0iw3YMrf1xmMsXha-76" value="Data Movers" style="ellipse;shape=cloud;whiteSpace=wrap;html=1;fontColor=#1A1A1A;strokeColor=#FFFFFF;fillColor=#EEEEEE;" parent="1" vertex="1">
          <mxGeometry x="850" y="490" width="120" height="80" as="geometry" />
        </mxCell>
        <mxCell id="5MRn0iw3YMrf1xmMsXha-84" value="Other Social Media" style="ellipse;shape=cloud;whiteSpace=wrap;html=1;fontColor=#1A1A1A;strokeColor=#FFFFFF;fillColor=#EEEEEE;" parent="1" vertex="1">
          <mxGeometry x="380" y="420" width="120" height="80" as="geometry" />
        </mxCell>
        <mxCell id="5MRn0iw3YMrf1xmMsXha-87" value="" style="endArrow=classic;html=1;rounded=0;fontColor=#FFFFFF;strokeColor=#FFFFFF;entryX=1;entryY=0;entryDx=0;entryDy=0;exitX=0.25;exitY=1;exitDx=0;exitDy=0;labelBackgroundColor=#182E3E;" parent="1" source="9BnDRoiO5koBL8PmgJbh-2" target="5MRn0iw3YMrf1xmMsXha-48" edge="1">
          <mxGeometry width="50" height="50" relative="1" as="geometry">
            <mxPoint x="710" y="430" as="sourcePoint" />
            <mxPoint x="760" y="380" as="targetPoint" />
          </mxGeometry>
        </mxCell>
        <mxCell id="sRocoR6KCOKyxxY12Ehh-3" style="edgeStyle=orthogonalEdgeStyle;rounded=0;orthogonalLoop=1;jettySize=auto;html=1;fontColor=#FFFFFF;strokeColor=#FFFFFF;entryX=0.5;entryY=1;entryDx=0;entryDy=0;startArrow=classic;startFill=1;labelBackgroundColor=#182E3E;" parent="1" source="sRocoR6KCOKyxxY12Ehh-1" target="9BnDRoiO5koBL8PmgJbh-3" edge="1">
          <mxGeometry relative="1" as="geometry">
            <mxPoint x="270" y="330" as="targetPoint" />
            <Array as="points">
              <mxPoint x="160" y="350" />
              <mxPoint x="270" y="350" />
            </Array>
          </mxGeometry>
        </mxCell>
        <mxCell id="sRocoR6KCOKyxxY12Ehh-4" value="POST" style="edgeStyle=orthogonalEdgeStyle;rounded=0;orthogonalLoop=1;jettySize=auto;html=1;fontColor=#FFFFFF;strokeColor=#FFFFFF;entryX=0;entryY=0.5;entryDx=0;entryDy=0;labelBackgroundColor=#182E3E;" parent="1" source="sRocoR6KCOKyxxY12Ehh-1" target="sRocoR6KCOKyxxY12Ehh-5" edge="1">
          <mxGeometry relative="1" as="geometry">
            <mxPoint x="370" y="400" as="targetPoint" />
            <Array as="points">
              <mxPoint x="230" y="380" />
              <mxPoint x="230" y="380" />
            </Array>
          </mxGeometry>
        </mxCell>
        <mxCell id="WNoz3eUofTTveRkiIzlt-2" value="POST" style="edgeStyle=orthogonalEdgeStyle;rounded=0;orthogonalLoop=1;jettySize=auto;html=1;labelBackgroundColor=#182E3E;strokeColor=#FFFFFF;fontColor=#FFFFFF;" edge="1" parent="1" source="sRocoR6KCOKyxxY12Ehh-1" target="WNoz3eUofTTveRkiIzlt-1">
          <mxGeometry relative="1" as="geometry" />
        </mxCell>
        <mxCell id="sRocoR6KCOKyxxY12Ehh-1" value="Sign Up" style="rounded=0;whiteSpace=wrap;html=1;fillColor=#EEEEEE;strokeColor=#FFFFFF;fontColor=#1A1A1A;" parent="1" vertex="1">
          <mxGeometry x="50" y="370" width="120" height="60" as="geometry" />
        </mxCell>
        <mxCell id="sRocoR6KCOKyxxY12Ehh-6" value="Success" style="edgeStyle=orthogonalEdgeStyle;rounded=0;orthogonalLoop=1;jettySize=auto;html=1;fontColor=#FFFFFF;startArrow=none;startFill=0;endArrow=classic;endFill=1;strokeColor=#FFFFFF;labelBackgroundColor=#182E3E;" parent="1" source="sRocoR6KCOKyxxY12Ehh-5" edge="1">
          <mxGeometry relative="1" as="geometry">
            <mxPoint x="560" y="320" as="targetPoint" />
            <Array as="points">
              <mxPoint x="560" y="380" />
              <mxPoint x="560" y="320" />
            </Array>
          </mxGeometry>
        </mxCell>
        <mxCell id="sRocoR6KCOKyxxY12Ehh-7" value="Fail" style="edgeStyle=orthogonalEdgeStyle;rounded=0;orthogonalLoop=1;jettySize=auto;html=1;entryX=1;entryY=0.75;entryDx=0;entryDy=0;fontColor=#FFFFFF;startArrow=none;startFill=0;endArrow=classic;endFill=1;strokeColor=#FFFFFF;labelBackgroundColor=#182E3E;" parent="1" source="sRocoR6KCOKyxxY12Ehh-5" target="sRocoR6KCOKyxxY12Ehh-1" edge="1">
          <mxGeometry relative="1" as="geometry">
            <Array as="points">
              <mxPoint x="330" y="415" />
              <mxPoint x="330" y="415" />
            </Array>
          </mxGeometry>
        </mxCell>
        <mxCell id="sRocoR6KCOKyxxY12Ehh-5" value="Create User" style="rhombus;whiteSpace=wrap;html=1;fontColor=#1A1A1A;strokeColor=#FFFFFF;fillColor=#EEEEEE;" parent="1" vertex="1">
          <mxGeometry x="390" y="340" width="80" height="80" as="geometry" />
        </mxCell>
        <mxCell id="WNoz3eUofTTveRkiIzlt-8" value="Success" style="edgeStyle=orthogonalEdgeStyle;rounded=0;orthogonalLoop=1;jettySize=auto;html=1;entryX=0.25;entryY=1;entryDx=0;entryDy=0;fontColor=#FFFFFF;startArrow=none;startFill=0;strokeColor=#FFFFFF;" edge="1" parent="1" source="WNoz3eUofTTveRkiIzlt-1" target="9BnDRoiO5koBL8PmgJbh-5">
          <mxGeometry relative="1" as="geometry" />
        </mxCell>
        <mxCell id="WNoz3eUofTTveRkiIzlt-10" value="Fail" style="edgeStyle=orthogonalEdgeStyle;rounded=0;orthogonalLoop=1;jettySize=auto;html=1;fontColor=#FFFFFF;startArrow=none;startFill=0;strokeColor=#FFFFFF;entryX=0.25;entryY=1;entryDx=0;entryDy=0;" edge="1" parent="1" source="WNoz3eUofTTveRkiIzlt-1" target="sRocoR6KCOKyxxY12Ehh-1">
          <mxGeometry relative="1" as="geometry">
            <mxPoint x="80" y="440" as="targetPoint" />
            <Array as="points">
              <mxPoint x="80" y="480" />
              <mxPoint x="80" y="480" />
            </Array>
          </mxGeometry>
        </mxCell>
        <mxCell id="WNoz3eUofTTveRkiIzlt-1" value="Register User" style="rhombus;whiteSpace=wrap;html=1;fillColor=#EEEEEE;strokeColor=#FFFFFF;fontColor=#1A1A1A;" vertex="1" parent="1">
          <mxGeometry x="70" y="490" width="80" height="80" as="geometry" />
        </mxCell>
        <mxCell id="WNoz3eUofTTveRkiIzlt-7" value="Send Info" style="edgeStyle=orthogonalEdgeStyle;rounded=0;orthogonalLoop=1;jettySize=auto;html=1;entryX=0;entryY=0;entryDx=0;entryDy=0;labelBackgroundColor=#182E3E;strokeColor=#FFFFFF;fontColor=#FFFFFF;" edge="1" parent="1" source="WNoz3eUofTTveRkiIzlt-3" target="WNoz3eUofTTveRkiIzlt-4">
          <mxGeometry relative="1" as="geometry">
            <Array as="points">
              <mxPoint x="-120" y="150" />
              <mxPoint x="-120" y="150" />
            </Array>
          </mxGeometry>
        </mxCell>
        <mxCell id="WNoz3eUofTTveRkiIzlt-3" value="Send Email" style="rhombus;whiteSpace=wrap;html=1;fillColor=#EEEEEE;strokeColor=#FFFFFF;fontColor=#1A1A1A;" vertex="1" parent="1">
          <mxGeometry x="-200" y="140" width="80" height="80" as="geometry" />
        </mxCell>
        <mxCell id="WNoz3eUofTTveRkiIzlt-6" value="Confirm" style="edgeStyle=orthogonalEdgeStyle;rounded=0;orthogonalLoop=1;jettySize=auto;html=1;entryX=1;entryY=0.5;entryDx=0;entryDy=0;labelBackgroundColor=#182E3E;strokeColor=#FFFFFF;fontColor=#FFFFFF;" edge="1" parent="1" source="WNoz3eUofTTveRkiIzlt-4" target="WNoz3eUofTTveRkiIzlt-3">
          <mxGeometry relative="1" as="geometry" />
        </mxCell>
        <mxCell id="WNoz3eUofTTveRkiIzlt-4" value="Forgot Login" style="rounded=0;whiteSpace=wrap;html=1;fillColor=#EEEEEE;strokeColor=#FFFFFF;fontColor=#1A1A1A;" vertex="1" parent="1">
          <mxGeometry x="-40" y="150" width="120" height="60" as="geometry" />
        </mxCell>
      </root>
    </mxGraphModel>
  </diagram>
</mxfile>
